<svg width="40" height="40" viewBox="0 0 40 40" fill="none" xmlns="http://www.w3.org/2000/svg">
<path fill-rule="evenodd" clip-rule="evenodd" d="M30 20C30 25.5228 25.5228 30 20 30C14.4772 30 10 25.5228 10 20C10 14.4772 14.4772 10 20 10C25.5228 10 30 14.4772 30 20ZM20 15.25C20.4142 15.25 20.75 15.5858 20.75 16V19.25H24C24.4142 19.25 24.75 19.5858 24.75 20C24.75 20.4142 24.4142 20.75 24 20.75H20.75V24C20.75 24.4142 20.4142 24.75 20 24.75C19.5858 24.75 19.25 24.4142 19.25 24V20.75H16C15.5858 20.75 15.25 20.4142 15.25 20C15.25 19.5858 15.5858 19.25 16 19.25H19.25V16C19.25 15.5858 19.5858 15.25 20 15.25Z" fill="#28303F"/>
</svg>
