<svg width="40" height="40" viewBox="0 0 40 40" fill="none" xmlns="http://www.w3.org/2000/svg">
<path fill-rule="evenodd" clip-rule="evenodd" d="M33.3333 20C33.3333 27.3638 27.3638 33.3333 20 33.3333C12.6362 33.3333 6.66663 27.3638 6.66663 20C6.66663 12.6362 12.6362 6.66666 20 6.66666C27.3638 6.66666 33.3333 12.6362 33.3333 20ZM20 11.6667C15.3976 11.6667 11.6666 15.3976 11.6666 20C11.6666 24.6024 15.3976 28.3333 20 28.3333C24.6023 28.3333 28.3333 24.6024 28.3333 20C28.3333 15.3976 24.6023 11.6667 20 11.6667ZM9.66663 20C9.66663 14.293 14.293 9.66666 20 9.66666C25.7069 9.66666 30.3333 14.293 30.3333 20C30.3333 25.7069 25.7069 30.3333 20 30.3333C14.293 30.3333 9.66663 25.7069 9.66663 20ZM21 16C21 15.4477 20.5522 15 20 15C19.4477 15 19 15.4477 19 16V19.1759C19 20.0597 19.4993 20.8677 20.2898 21.2629L22.2194 22.2278C22.7134 22.4747 23.3141 22.2745 23.5611 21.7805C23.808 21.2866 23.6078 20.6859 23.1138 20.4389L21.1842 19.4741C21.0713 19.4176 21 19.3022 21 19.1759V16Z" fill="#28303F"/>
</svg>
