<svg width="40" height="40" viewBox="0 0 40 40" fill="none" xmlns="http://www.w3.org/2000/svg">
<path d="M8 13.1156V12.5C8 12.1022 8.15804 11.7206 8.43934 11.4393C8.72064 11.158 9.10218 11 9.5 11H30.5C30.8978 11 31.2794 11.158 31.5607 11.4393C31.842 11.7206 32 12.1022 32 12.5V13.1156L20 20.6156L8 13.1156ZM20.3975 22.1362C20.2783 22.2106 20.1405 22.2501 20 22.2501C19.8595 22.2501 19.7217 22.2106 19.6025 22.1362L8 14.8844V27.5C8 27.8978 8.15804 28.2794 8.43934 28.5607C8.72064 28.842 9.10218 29 9.5 29H30.5C30.8978 29 31.2794 28.842 31.5607 28.5607C31.842 28.2794 32 27.8978 32 27.5V14.8844L20.3975 22.1362Z" fill="#28303F"/>
</svg>
