<svg width="40" height="40" viewBox="0 0 40 40" fill="none" xmlns="http://www.w3.org/2000/svg">
<g clip-path="url(#clip0_321_255)">
<path d="M20 22C21.933 22 23.5 20.433 23.5 18.5C23.5 16.567 21.933 15 20 15C18.067 15 16.5 16.567 16.5 18.5C16.5 20.433 18.067 22 20 22Z" fill="#28303F"/>
<path d="M32.0001 17C31.3812 17.0017 30.7779 17.1949 30.2731 17.5529C29.7682 17.911 29.3864 18.4165 29.1801 19H27.9301C27.709 17.2382 26.908 15.6 25.6533 14.3435C24.3987 13.087 22.7616 12.2837 21.0001 12.06V10.82C21.6673 10.5841 22.2297 10.1199 22.5878 9.50952C22.9458 8.89911 23.0766 8.18176 22.9569 7.48427C22.8372 6.78677 22.4749 6.15404 21.9338 5.6979C21.3927 5.24175 20.7078 4.99157 20.0001 4.99157C19.2924 4.99157 18.6075 5.24175 18.0665 5.6979C17.5254 6.15404 17.163 6.78677 17.0433 7.48427C16.9237 8.18176 17.0544 8.89911 17.4125 9.50952C17.7706 10.1199 18.3329 10.5841 19.0001 10.82V12.06C17.2386 12.2837 15.6016 13.087 14.3469 14.3435C13.0922 15.6 12.2913 17.2382 12.0701 19H10.8201C10.5842 18.3328 10.1201 17.7704 9.50965 17.4124C8.89924 17.0543 8.18189 16.9235 7.48439 17.0432C6.7869 17.1629 6.15416 17.5253 5.69802 18.0663C5.24188 18.6074 4.9917 19.2923 4.9917 20C4.9917 20.7077 5.24188 21.3926 5.69802 21.9337C6.15416 22.4747 6.7869 22.8371 7.48439 22.9568C8.18189 23.0765 8.89924 22.9457 9.50965 22.5876C10.1201 22.2296 10.5842 21.6672 10.8201 21H12.0701C12.1779 21.8695 12.4315 22.7147 12.8201 23.5C13.3361 22.4429 14.0807 21.5138 15.0001 20.78C14.6692 20.0655 14.4986 19.2874 14.5001 18.5C14.5036 17.2155 14.9549 15.9725 15.7763 14.985C16.5977 13.9975 17.7378 13.3273 19.0001 13.09C19.6612 12.9675 20.3391 12.9675 21.0001 13.09C22.2625 13.3273 23.4025 13.9975 24.2239 14.985C25.0453 15.9725 25.4966 17.2155 25.5001 18.5C25.5017 19.2874 25.331 20.0655 25.0001 20.78C25.9195 21.5138 26.6642 22.4429 27.1801 23.5C27.5688 22.7147 27.8223 21.8695 27.9301 21H29.1801C29.3636 21.5189 29.6862 21.9773 30.1128 22.3251C30.5393 22.6729 31.0533 22.8966 31.5985 22.9718C32.1437 23.0471 32.6991 22.9709 33.2038 22.7516C33.7086 22.5323 34.1434 22.1784 34.4605 21.7286C34.7776 21.2788 34.9649 20.7504 35.0018 20.2013C35.0387 19.6522 34.9239 19.1035 34.6699 18.6153C34.4158 18.1271 34.0324 17.7181 33.5615 17.4332C33.0906 17.1483 32.5505 16.9985 32.0001 17Z" fill="#28303F"/>
<path d="M30.1798 29.88C29.7408 29.4432 29.1774 29.1529 28.5668 29.0491C27.9563 28.9452 27.3286 29.0329 26.7698 29.3L24.2298 26.76C24.8065 26.4071 25.3343 25.9802 25.7998 25.49C25.4858 24.2908 24.8081 23.2184 23.8598 22.42C22.8296 23.4314 21.4435 23.998 19.9998 23.998C18.5561 23.998 17.1701 23.4314 16.1398 22.42C15.1916 23.2184 14.5138 24.2908 14.1998 25.49C14.6753 25.99 15.2131 26.4269 15.7998 26.79L13.2798 29.31C12.7209 29.0551 12.0985 28.9732 11.4926 29.0747C10.8867 29.1763 10.3251 29.4567 9.87984 29.88C9.48887 30.2675 9.21206 30.7551 9.07971 31.2894C8.94735 31.8237 8.96456 32.3841 9.12944 32.9093C9.29433 33.4345 9.60053 33.9042 10.0145 34.267C10.4285 34.6298 10.9344 34.8717 11.4766 34.9662C12.0189 35.0607 12.5768 35.0042 13.0891 34.8028C13.6014 34.6015 14.0484 34.263 14.3812 33.8246C14.7141 33.3861 14.9198 32.8646 14.976 32.317C15.0322 31.7694 14.9367 31.2169 14.6998 30.72L17.7498 27.72C19.2326 28.1734 20.8171 28.1734 22.2998 27.72L25.3598 30.79C25.123 31.2869 25.0275 31.8394 25.0836 32.387C25.1398 32.9346 25.3456 33.4561 25.6784 33.8946C26.0112 34.333 26.4583 34.6715 26.9706 34.8728C27.4829 35.0742 28.0407 35.1307 28.583 35.0362C29.1253 34.9417 29.6312 34.6998 30.0451 34.337C30.4591 33.9742 30.7653 33.5045 30.9302 32.9793C31.0951 32.4541 31.1123 31.8937 30.98 31.3594C30.8476 30.8251 30.5708 30.3375 30.1798 29.95V29.88Z" fill="#28303F"/>
</g>
<defs>
<clipPath id="clip0_321_255">
<rect width="32" height="32" fill="white" transform="translate(4 4)"/>
</clipPath>
</defs>
</svg>
