<svg width="40" height="40" viewBox="0 0 40 40" fill="none" xmlns="http://www.w3.org/2000/svg">
<path d="M20 6C17.0837 6.00344 14.2878 7.16347 12.2256 9.22563C10.1635 11.2878 9.00344 14.0837 9 17C8.9965 19.3832 9.77498 21.7018 11.216 23.6C11.216 23.6 11.516 23.995 11.565 24.052L20 34L28.439 24.047C28.483 23.994 28.784 23.6 28.784 23.6L28.785 23.597C30.2253 21.6996 31.0034 19.3821 31 17C30.9966 14.0837 29.8365 11.2878 27.7744 9.22563C25.7122 7.16347 22.9163 6.00344 20 6ZM20 21C19.2089 21 18.4355 20.7654 17.7777 20.3259C17.1199 19.8864 16.6072 19.2616 16.3045 18.5307C16.0017 17.7998 15.9225 16.9956 16.0769 16.2196C16.2312 15.4437 16.6122 14.731 17.1716 14.1716C17.731 13.6122 18.4437 13.2312 19.2196 13.0769C19.9956 12.9225 20.7998 13.0017 21.5307 13.3045C22.2616 13.6072 22.8863 14.1199 23.3259 14.7777C23.7654 15.4355 24 16.2089 24 17C23.9987 18.0605 23.5768 19.0771 22.827 19.827C22.0771 20.5768 21.0605 20.9987 20 21Z" fill="black"/>
</svg>
