<svg width="21" height="16" viewBox="0 0 21 16" fill="none" xmlns="http://www.w3.org/2000/svg">
<path d="M15.4906 8.4895C16.2304 8.48482 16.9564 8.28983 17.599 7.92329C16.6997 10.2714 15.2029 12.3441 13.2567 13.9361C13.1453 14.0284 13.0532 14.1416 12.9857 14.2695C12.9181 14.3973 12.8764 14.5372 12.8628 14.6812C12.8493 14.8252 12.8643 14.9704 12.9069 15.1086C12.9496 15.2468 13.019 15.3752 13.1112 15.4865C13.2035 15.5979 13.3168 15.69 13.4446 15.7576C13.5725 15.8251 13.7124 15.8669 13.8563 15.8804C14.0003 15.8939 14.1455 15.8789 14.2837 15.8363C14.4219 15.7936 14.5503 15.7242 14.6617 15.632C18.6521 12.3702 20.4188 7.86499 20.4106 5.075C20.4008 4.08853 20.104 3.12626 19.5564 2.30568C19.0088 1.48509 18.2342 0.841699 17.327 0.454059C16.7398 0.171736 16.0972 0.0233425 15.4457 0.0195955C14.8722 -0.00659035 14.2993 0.0839789 13.7618 0.285812C13.2243 0.487644 12.7334 0.796537 12.3188 1.19376C11.9043 1.59098 11.5747 2.06825 11.3502 2.59664C11.1256 3.12504 11.0107 3.69353 11.0123 4.26767C11.014 4.8418 11.1323 5.40961 11.36 5.93667C11.5877 6.46373 11.92 6.93906 12.3369 7.33383C12.7538 7.7286 13.2465 8.0346 13.7852 8.23326C14.3239 8.43193 14.8973 8.51912 15.4706 8.48956L15.4906 8.4895Z" fill="#4A3594" fill-opacity="0.74"/>
<path d="M4.4705 8.46953C5.21035 8.46576 5.93665 8.2707 6.57884 7.90332C5.67996 10.249 4.18709 12.321 2.24653 13.9161C2.12503 14.0042 2.02285 14.1163 1.94628 14.2454C1.86971 14.3745 1.82037 14.5178 1.80129 14.6667C1.78221 14.8156 1.7938 14.9668 1.83534 15.111C1.87688 15.2552 1.9475 15.3894 2.04284 15.5053C2.13819 15.6213 2.25625 15.7164 2.38975 15.785C2.52326 15.8536 2.66938 15.8941 2.81914 15.9041C2.96889 15.9141 3.11911 15.8933 3.26054 15.8431C3.40197 15.7929 3.53163 15.7142 3.64153 15.612C7.63194 12.3502 9.39868 7.84502 9.39047 5.05503C9.38286 4.07973 9.09465 3.12724 8.56026 2.31133C8.02588 1.49542 7.26791 0.8506 6.37691 0.453885C5.77484 0.163294 5.11413 0.0147102 4.44562 0.0195691C3.87208 -0.00661672 3.2992 0.0839525 2.76171 0.285785C2.22422 0.487618 1.73331 0.796509 1.31877 1.19373C0.904221 1.59095 0.574664 2.06823 0.350081 2.59662C0.125499 3.12501 0.0105684 3.69351 0.0122588 4.26764C0.0139492 4.84178 0.132225 5.40959 0.359915 5.93665C0.587605 6.4637 0.919967 6.93903 1.33685 7.3338C1.75372 7.72858 2.24644 8.03457 2.78511 8.23324C3.32378 8.4319 3.89718 8.51909 4.47056 8.48953L4.4705 8.46953Z" fill="#4A3594" fill-opacity="0.74"/>
</svg>
