<svg width="21" height="16" viewBox="0 0 21 16" fill="none" xmlns="http://www.w3.org/2000/svg">
<path d="M4.93 7.43239C4.19026 7.4349 3.46362 7.62775 2.82 7.9924C3.72615 5.6469 5.22906 3.57868 7.18 1.9924C7.29162 1.90047 7.38405 1.78746 7.452 1.65981C7.51994 1.53217 7.56209 1.39239 7.57602 1.24846C7.58994 1.10453 7.57539 0.959266 7.53318 0.820961C7.49096 0.682656 7.42193 0.55402 7.33 0.442396C7.23808 0.330773 7.12506 0.238347 6.99742 0.170399C6.86978 0.10245 6.73 0.0603088 6.58607 0.04638C6.44213 0.0324512 6.29687 0.0470086 6.15857 0.08922C6.02026 0.131431 5.89162 0.20047 5.78 0.292396C1.78 3.5424 0 8.0424 0 10.8324C0.00689204 11.8189 0.30087 12.782 0.84604 13.6042C1.39121 14.4264 2.16398 15.0721 3.07 15.4624C3.65636 15.7464 4.29849 15.8967 4.95 15.9024C5.52346 15.9303 6.09661 15.8414 6.63469 15.6411C7.17278 15.4409 7.66458 15.1334 8.0803 14.7374C8.49601 14.3414 8.82697 13.8651 9.05311 13.3374C9.27925 12.8097 9.39585 12.2415 9.39585 11.6674C9.39585 11.0933 9.27925 10.5251 9.05311 9.99737C8.82697 9.46965 8.49601 8.99335 8.0803 8.59735C7.66458 8.20135 7.17278 7.8939 6.63469 7.69365C6.09661 7.4934 5.52346 7.40452 4.95 7.43239H4.93Z" fill="#4A3594" fill-opacity="0.74"/>
<path d="M16.0696 7.43234C15.3298 7.43394 14.6029 7.62685 13.9596 7.99234C14.8654 5.64931 16.3644 3.58177 18.3096 1.99234C18.4314 1.90458 18.5339 1.79283 18.6109 1.66397C18.6878 1.53511 18.7376 1.39186 18.7571 1.24305C18.7766 1.09424 18.7655 0.943002 18.7244 0.798655C18.6832 0.654309 18.613 0.519904 18.518 0.403711C18.423 0.287519 18.3052 0.191997 18.1719 0.123026C18.0386 0.0540543 17.8926 0.0130927 17.7429 0.00266052C17.5932 -0.0077717 17.4429 0.0125465 17.3013 0.0623653C17.1597 0.112184 17.0298 0.190449 16.9196 0.292344C12.9196 3.54234 11.1396 8.04235 11.1396 10.8323C11.1444 11.8077 11.4298 12.761 11.9618 13.5785C12.4938 14.396 13.2498 15.043 14.1396 15.4423C14.7409 15.7347 15.4011 15.8852 16.0696 15.8823C16.6431 15.9102 17.2163 15.8213 17.7543 15.6211C18.2924 15.4208 18.7842 15.1134 19.1999 14.7174C19.6157 14.3214 19.9466 13.8451 20.1728 13.3174C20.3989 12.7896 20.5155 12.2215 20.5155 11.6473C20.5155 11.0732 20.3989 10.505 20.1728 9.97732C19.9466 9.4496 19.6157 8.97329 19.1999 8.57729C18.7842 8.1813 18.2924 7.87385 17.7543 7.6736C17.2163 7.47335 16.6431 7.38447 16.0696 7.41234V7.43234Z" fill="#4A3594" fill-opacity="0.74"/>
</svg>
