<svg width="16" height="12" viewBox="0 0 16 12" fill="none" xmlns="http://www.w3.org/2000/svg">
<path d="M3.56056 5.33804C3.0263 5.33985 2.5015 5.47913 2.03667 5.74249C2.69111 4.04852 3.77654 2.5548 5.18556 1.40915C5.26617 1.34276 5.33292 1.26114 5.382 1.16896C5.43107 1.07677 5.46151 0.975818 5.47157 0.871868C5.48163 0.767918 5.47111 0.663005 5.44063 0.563118C5.41014 0.463231 5.36028 0.370327 5.29389 0.28971C5.2275 0.209093 5.14588 0.142341 5.05369 0.093267C4.9615 0.0441931 4.86055 0.0137576 4.7566 0.00369797C4.65265 -0.00636171 4.54774 0.00415195 4.44785 0.034638C4.34797 0.065124 4.25506 0.114985 4.17444 0.181376C1.28556 2.5286 0 5.7786 0 7.7936C0.00497759 8.50606 0.217295 9.20167 0.611029 9.79547C1.00476 10.3893 1.56288 10.8556 2.21722 11.1375C2.6407 11.3426 3.10446 11.4512 3.575 11.4553C3.98917 11.4754 4.40311 11.4112 4.79172 11.2666C5.18034 11.122 5.53553 10.8999 5.83577 10.6139C6.13601 10.3279 6.37504 9.98392 6.53836 9.60278C6.70168 9.22164 6.78589 8.81131 6.78589 8.39665C6.78589 7.982 6.70168 7.57166 6.53836 7.19053C6.37504 6.80939 6.13601 6.46539 5.83577 6.1794C5.53553 5.8934 5.18034 5.67135 4.79172 5.52673C4.40311 5.3821 3.98917 5.31791 3.575 5.33804H3.56056Z" fill="#4A3594" fill-opacity="0.74"/>
<path d="M12.5606 5.3678C12.0262 5.36896 11.5013 5.50828 11.0367 5.77225C11.6908 4.08005 12.7734 2.58684 14.1783 1.43892C14.2663 1.37553 14.3403 1.29482 14.3959 1.20176C14.4515 1.10869 14.4874 1.00524 14.5015 0.897759C14.5156 0.790282 14.5075 0.681057 14.4778 0.576807C14.4481 0.472556 14.3974 0.375486 14.3288 0.291569C14.2602 0.207652 14.1751 0.138665 14.0789 0.0888519C13.9826 0.0390392 13.8771 0.00945586 13.769 0.00192148C13.6609 -0.0056129 13.5523 0.00906135 13.4501 0.0450416C13.3478 0.0810219 13.254 0.137547 13.1744 0.211137C10.2856 2.55836 9 5.80836 9 7.82336C9.00342 8.52776 9.20955 9.21628 9.59376 9.80668C9.97796 10.3971 10.524 10.8644 11.1667 11.1528C11.6009 11.364 12.0777 11.4727 12.5606 11.4706C12.9747 11.4907 13.3887 11.4265 13.7773 11.2819C14.1659 11.1373 14.5211 10.9152 14.8213 10.6292C15.1216 10.3432 15.3606 9.99923 15.5239 9.6181C15.6872 9.23696 15.7714 8.82663 15.7714 8.41197C15.7714 7.99732 15.6872 7.58698 15.5239 7.20584C15.3606 6.82471 15.1216 6.48071 14.8213 6.19471C14.5211 5.90871 14.1659 5.68667 13.7773 5.54205C13.3887 5.39742 12.9747 5.33323 12.5606 5.35336V5.3678Z" fill="#4A3594" fill-opacity="0.74"/>
</svg>
