<svg width="16" height="12" viewBox="0 0 16 12" fill="none" xmlns="http://www.w3.org/2000/svg">
<path d="M12.2436 6.13114C12.7778 6.12776 13.3022 5.98694 13.7663 5.72221C13.1168 7.4181 12.0358 8.91501 10.6301 10.0648C10.5497 10.1314 10.4832 10.2132 10.4344 10.3056C10.3856 10.3979 10.3555 10.4989 10.3457 10.6029C10.336 10.7069 10.3468 10.8118 10.3776 10.9116C10.4083 11.0114 10.4585 11.1041 10.5251 11.1846C10.5917 11.265 10.6735 11.3315 10.7659 11.3803C10.8582 11.4291 10.9593 11.4592 11.0632 11.469C11.1672 11.4787 11.2721 11.4679 11.3719 11.4371C11.4717 11.4064 11.5644 11.3562 11.6449 11.2896C14.5268 8.93388 15.8028 5.68011 15.7969 3.66511C15.7898 2.95267 15.5754 2.25769 15.18 1.66505C14.7845 1.0724 14.225 0.607732 13.5698 0.327769C13.1457 0.123869 12.6817 0.0166959 12.2111 0.0139897C11.7969 -0.00492225 11.3831 0.0604888 10.995 0.206257C10.6068 0.352025 10.2522 0.575114 9.95283 0.861996C9.65343 1.14888 9.41542 1.49358 9.25322 1.87519C9.09102 2.25681 9.00802 2.66739 9.00924 3.08204C9.01046 3.49669 9.09588 3.90678 9.26032 4.28743C9.42477 4.66809 9.66481 5.01138 9.96588 5.29649C10.267 5.58161 10.6228 5.8026 11.0119 5.94608C11.4009 6.08956 11.815 6.15254 12.2291 6.13119L12.2436 6.13114Z" fill="#4A3594" fill-opacity="0.74"/>
<path d="M3.22883 6.11676C3.76317 6.11404 4.28771 5.97316 4.75152 5.70783C4.10233 7.40195 3.02415 8.89834 1.62263 10.0504C1.53488 10.114 1.46109 10.195 1.40579 10.2882C1.35048 10.3814 1.31485 10.485 1.30107 10.5925C1.28729 10.7 1.29566 10.8092 1.32566 10.9134C1.35566 11.0175 1.40666 11.1145 1.47552 11.1982C1.54438 11.2819 1.62965 11.3506 1.72607 11.4002C1.82249 11.4497 1.92802 11.479 2.03618 11.4862C2.14434 11.4934 2.25283 11.4784 2.35497 11.4421C2.45712 11.4058 2.55076 11.349 2.63013 11.2752C5.51209 8.9195 6.78807 5.66572 6.78214 3.65073C6.77665 2.94635 6.56849 2.25844 6.18255 1.66917C5.7966 1.07991 5.24918 0.6142 4.60568 0.327683C4.17086 0.117812 3.69368 0.0105012 3.21086 0.0140104C2.79664 -0.00490155 2.38289 0.0605096 1.9947 0.206278C1.60651 0.352046 1.25197 0.575134 0.952579 0.862015C0.653184 1.1489 0.415171 1.4936 0.252972 1.87521C0.0907738 2.25683 0.0077685 2.66741 0.00898935 3.08206C0.0102102 3.49672 0.0956318 3.9068 0.260075 4.28745C0.424517 4.66811 0.664556 5.0114 0.965635 5.29651C1.26671 5.58163 1.62256 5.80262 2.0116 5.9461C2.40064 6.08958 2.81477 6.15256 3.22887 6.13121L3.22883 6.11676Z" fill="#4A3594" fill-opacity="0.74"/>
</svg>
