<svg width="28" height="28" viewBox="0 0 28 28" fill="none" xmlns="http://www.w3.org/2000/svg">
<path d="M20.8967 7.03667C20.6198 7.03667 20.3491 7.11878 20.1189 7.27261C19.8886 7.42644 19.7092 7.64509 19.6032 7.90091C19.4973 8.15673 19.4695 8.43822 19.5236 8.70979C19.5776 8.98137 19.7109 9.23082 19.9067 9.42662C20.1025 9.62241 20.352 9.75575 20.6235 9.80977C20.8951 9.86379 21.1766 9.83606 21.4324 9.7301C21.6882 9.62414 21.9069 9.44469 22.0607 9.21447C22.2146 8.98424 22.2967 8.71356 22.2967 8.43667C22.2967 8.06536 22.1492 7.70927 21.8866 7.44672C21.6241 7.18417 21.268 7.03667 20.8967 7.03667ZM26.2633 9.86C26.2406 8.89201 26.0593 7.9343 25.7267 7.025C25.43 6.24699 24.9683 5.54249 24.3733 4.96C23.7956 4.362 23.0895 3.90321 22.3083 3.61833C21.4014 3.27552 20.4427 3.09008 19.4733 3.07C18.2367 3 17.84 3 14.6667 3C11.4933 3 11.0967 3 9.86 3.07C8.89068 3.09008 7.9319 3.27552 7.025 3.61833C6.24529 3.90609 5.53976 4.36449 4.96 4.96C4.362 5.53771 3.90321 6.24385 3.61833 7.025C3.27552 7.9319 3.09008 8.89068 3.07 9.86C3 11.0967 3 11.4933 3 14.6667C3 17.84 3 18.2367 3.07 19.4733C3.09008 20.4427 3.27552 21.4014 3.61833 22.3083C3.90321 23.0895 4.362 23.7956 4.96 24.3733C5.53976 24.9688 6.24529 25.4272 7.025 25.715C7.9319 26.0578 8.89068 26.2433 9.86 26.2633C11.0967 26.3333 11.4933 26.3333 14.6667 26.3333C17.84 26.3333 18.2367 26.3333 19.4733 26.2633C20.4427 26.2433 21.4014 26.0578 22.3083 25.715C23.0895 25.4301 23.7956 24.9713 24.3733 24.3733C24.9709 23.793 25.4331 23.0879 25.7267 22.3083C26.0593 21.399 26.2406 20.4413 26.2633 19.4733C26.2633 18.2367 26.3333 17.84 26.3333 14.6667C26.3333 11.4933 26.3333 11.0967 26.2633 9.86ZM24.1633 19.3333C24.1548 20.0739 24.0207 20.8077 23.7667 21.5033C23.5804 22.0111 23.2812 22.4698 22.8917 22.845C22.5133 23.2306 22.0554 23.5292 21.55 23.72C20.8543 23.974 20.1206 24.1082 19.38 24.1167C18.2133 24.175 17.7817 24.1867 14.7133 24.1867C11.645 24.1867 11.2133 24.1867 10.0467 24.1167C9.27771 24.1311 8.51203 24.0127 7.78333 23.7667C7.30008 23.5661 6.86325 23.2682 6.5 22.8917C6.11277 22.5169 5.81732 22.0577 5.63667 21.55C5.35183 20.8443 5.19385 20.0939 5.17 19.3333C5.17 18.1667 5.1 17.735 5.1 14.6667C5.1 11.5983 5.1 11.1667 5.17 10C5.17523 9.2429 5.31344 8.4926 5.57833 7.78333C5.78372 7.2909 6.09898 6.85193 6.5 6.5C6.85445 6.09886 7.2925 5.78028 7.78333 5.56667C8.49448 5.31005 9.244 5.17593 10 5.17C11.1667 5.17 11.5983 5.1 14.6667 5.1C17.735 5.1 18.1667 5.1 19.3333 5.17C20.0739 5.17849 20.8077 5.31262 21.5033 5.56667C22.0335 5.76343 22.5093 6.08332 22.8917 6.5C23.274 6.85837 23.5727 7.29652 23.7667 7.78333C24.026 8.49376 24.1602 9.24374 24.1633 10C24.2217 11.1667 24.2333 11.5983 24.2333 14.6667C24.2333 17.735 24.2217 18.1667 24.1633 19.3333ZM14.6667 8.68167C13.4834 8.68397 12.3275 9.03695 11.3448 9.69599C10.3621 10.355 9.59677 11.2906 9.14557 12.3844C8.69437 13.4782 8.57751 14.6812 8.80976 15.8414C9.04201 17.0016 9.61294 18.067 10.4504 18.9028C11.2879 19.7387 12.3543 20.3075 13.515 20.5375C14.6757 20.7675 15.8784 20.6483 16.9714 20.195C18.0643 19.7416 18.9984 18.9745 19.6555 17.9905C20.3126 17.0066 20.6633 15.8499 20.6633 14.6667C20.6649 13.8793 20.5107 13.0994 20.2098 12.3718C19.9088 11.6442 19.467 10.9833 18.9097 10.4271C18.3524 9.87084 17.6906 9.43029 16.9624 9.13075C16.2343 8.83121 15.454 8.67859 14.6667 8.68167ZM14.6667 18.5517C13.8983 18.5517 13.1472 18.3238 12.5083 17.8969C11.8694 17.47 11.3714 16.8633 11.0774 16.1534C10.7833 15.4435 10.7064 14.6624 10.8563 13.9087C11.0062 13.1551 11.3762 12.4629 11.9196 11.9196C12.4629 11.3762 13.1551 11.0062 13.9087 10.8563C14.6624 10.7064 15.4435 10.7833 16.1534 11.0774C16.8633 11.3714 17.47 11.8694 17.8969 12.5083C18.3238 13.1472 18.5517 13.8983 18.5517 14.6667C18.5517 15.1769 18.4512 15.682 18.2559 16.1534C18.0607 16.6247 17.7745 17.053 17.4138 17.4138C17.053 17.7745 16.6247 18.0607 16.1534 18.2559C15.682 18.4512 15.1769 18.5517 14.6667 18.5517Z" fill="white"/>
</svg>
