<svg width="40" height="40" viewBox="0 0 40 40" fill="none" xmlns="http://www.w3.org/2000/svg">
<path d="M28 7L17.1596 17.8395C15.983 17.4828 14.7392 17.4066 13.5278 17.6169C12.3164 17.8272 11.1711 18.3183 10.1836 19.0507C9.19611 19.7832 8.39381 20.7367 7.84097 21.8349C7.28814 22.9331 7.00013 24.1455 7 25.375C7 27.4636 7.82969 29.4666 9.30653 30.9435C10.7834 32.4203 12.7864 33.25 14.875 33.25C16.1045 33.2498 17.3169 32.9617 18.4151 32.4087C19.5133 31.8558 20.4667 31.0534 21.1991 30.0658C21.9315 29.0782 22.4224 27.9328 22.6326 26.7214C22.8428 25.5099 22.7665 24.2661 22.4096 23.0895L24.5 21V19.25H26.25L33.25 12.25V7H28ZM31.125 11.625L25.369 17.125H22.625L22.125 19.625L19.625 21.625L20.125 23.625C20.3009 24.2042 20.125 24.7739 20.125 25.375C20.125 28.7525 18.2516 30.625 14.875 30.625C11.4984 30.625 9.30653 28.7525 9.30653 25.375C9.30653 21.9975 11.4984 20.2746 14.875 20.2746C15.4753 20.2746 16.0466 20.0996 16.625 20.2746H17.625L18.8206 19.25L24.125 14.125L28.625 9.125H31.125V11.625Z" fill="#28303F"/>
<path d="M13.125 28.875C14.0915 28.875 14.875 28.0915 14.875 27.125C14.875 26.1585 14.0915 25.375 13.125 25.375C12.1585 25.375 11.375 26.1585 11.375 27.125C11.375 28.0915 12.1585 28.875 13.125 28.875Z" fill="#28303F"/>
<path d="M24.1904 15.4411L29.4404 10.1911L30.1251 10.625L25.1251 16.125L24.1904 15.4411Z" fill="#28303F"/>
</svg>
