<svg width="40" height="40" viewBox="0 0 40 40" fill="none" xmlns="http://www.w3.org/2000/svg">
<path d="M21.0462 27.4412C21.1861 27.5806 21.297 27.7462 21.3727 27.9285C21.4485 28.1108 21.4874 28.3063 21.4874 28.5037C21.4874 28.7012 21.4485 28.8966 21.3727 29.079C21.297 29.2613 21.1861 29.4269 21.0462 29.5662L20.3037 30.3087C18.8968 31.7157 16.9885 32.5061 14.9987 32.5061C13.009 32.5061 11.1007 31.7157 9.69374 30.3087C8.28677 28.9018 7.49634 26.9935 7.49634 25.0037C7.49634 23.014 8.28677 21.1057 9.69374 19.6987L12.7087 16.685C14.0606 15.3298 15.8795 14.5428 17.7928 14.4851C19.7061 14.4275 21.569 15.1036 23 16.375C23.1477 16.5063 23.2682 16.6655 23.3544 16.8433C23.4406 17.0212 23.491 17.2143 23.5026 17.4116C23.5142 17.6089 23.4868 17.8066 23.422 17.9934C23.3572 18.1801 23.2563 18.3523 23.125 18.5C22.9937 18.6477 22.8345 18.7682 22.6567 18.8544C22.4788 18.9406 22.2857 18.991 22.0884 19.0026C21.8911 19.0142 21.6934 18.9868 21.5066 18.922C21.3199 18.8573 21.1477 18.7563 21 18.625C20.1419 17.8629 19.025 17.4575 17.8779 17.4916C16.7307 17.5258 15.64 17.9969 14.8287 18.8087L11.8162 21.8187C10.9722 22.6628 10.498 23.8076 10.498 25.0012C10.498 26.1949 10.9722 27.3397 11.8162 28.1837C12.6603 29.0278 13.8051 29.502 14.9987 29.502C16.1924 29.502 17.3372 29.0278 18.1812 28.1837L18.9237 27.4412C19.0631 27.3018 19.2285 27.1911 19.4106 27.1157C19.5927 27.0402 19.7879 27.0013 19.985 27.0013C20.1821 27.0013 20.3773 27.0402 20.5594 27.1157C20.7415 27.1911 20.9069 27.3018 21.0462 27.4412ZM30.3062 9.69124C28.8981 8.28643 26.9903 7.4975 25.0012 7.4975C23.0122 7.4975 21.1044 8.28643 19.6962 9.69124L18.9537 10.4337C18.6719 10.7155 18.5136 11.0977 18.5136 11.4962C18.5136 11.8948 18.6719 12.277 18.9537 12.5587C19.2355 12.8405 19.6177 12.9988 20.0162 12.9988C20.4148 12.9988 20.7969 12.8405 21.0787 12.5587L21.8212 11.8162C22.6653 10.9722 23.8101 10.498 25.0037 10.498C26.1974 10.498 27.3422 10.9722 28.1862 11.8162C29.0303 12.6603 29.5045 13.8051 29.5045 14.9987C29.5045 16.1924 29.0303 17.3372 28.1862 18.1812L25.1725 21.1962C24.3605 22.0077 23.2692 22.4782 22.1217 22.5114C20.9743 22.5446 19.8575 22.1381 19 21.375C18.8523 21.2437 18.6801 21.1427 18.4934 21.0779C18.3066 21.0132 18.1089 20.9858 17.9116 20.9974C17.7143 21.009 17.5212 21.0594 17.3433 21.1456C17.1654 21.2318 17.0063 21.3523 16.875 21.5C16.7437 21.6477 16.6427 21.8199 16.5779 22.0066C16.5132 22.1934 16.4858 22.3911 16.4974 22.5884C16.509 22.7857 16.5594 22.9788 16.6456 23.1567C16.7318 23.3345 16.8523 23.4937 17 23.625C18.43 24.8961 20.2917 25.5726 22.2041 25.5162C24.1165 25.4597 25.935 24.6745 27.2875 23.3212L30.3025 20.3075C31.7089 18.8997 32.4993 16.9914 32.5 15.0014C32.5007 13.0114 31.7117 11.1025 30.3062 9.69374V9.69124Z" fill="black"/>
</svg>
