<svg width="16" height="16" viewBox="0 0 16 16" fill="none" xmlns="http://www.w3.org/2000/svg">
<g clip-path="url(#clip0_231_303)">
<path d="M2 4C3.10457 4 4 3.10457 4 2C4 0.895431 3.10457 0 2 0C0.895431 0 0 0.895431 0 2C0 3.10457 0.895431 4 2 4Z" fill="white"/>
<path d="M3.66667 5.33333H0.333333C0.244928 5.33333 0.160143 5.36845 0.0976311 5.43096C0.035119 5.49348 0 5.57826 0 5.66667L0 15.6667C0 15.7551 0.035119 15.8399 0.0976311 15.9024C0.160143 15.9649 0.244928 16 0.333333 16H3.66667C3.75507 16 3.83986 15.9649 3.90237 15.9024C3.96488 15.8399 4 15.7551 4 15.6667V5.66667C4 5.57826 3.96488 5.49348 3.90237 5.43096C3.83986 5.36845 3.75507 5.33333 3.66667 5.33333ZM13.598 4.874C12.1733 4.386 10.3913 4.81467 9.32267 5.58333C9.3042 5.51179 9.26248 5.44842 9.20407 5.40317C9.14567 5.35792 9.07388 5.33335 9 5.33333H5.66667C5.57826 5.33333 5.49348 5.36845 5.43096 5.43096C5.36845 5.49348 5.33333 5.57826 5.33333 5.66667V15.6667C5.33333 15.7551 5.36845 15.8399 5.43096 15.9024C5.49348 15.9649 5.57826 16 5.66667 16H9C9.08841 16 9.17319 15.9649 9.2357 15.9024C9.29821 15.8399 9.33333 15.7551 9.33333 15.6667V8.48C9.872 8.016 10.566 7.868 11.134 8.10933C11.6847 8.342 12 8.91 12 9.66667V15.6667C12 15.7551 12.0351 15.8399 12.0976 15.9024C12.1601 15.9649 12.2449 16 12.3333 16H15.6667C15.7551 16 15.8399 15.9649 15.9024 15.9024C15.9649 15.8399 16 15.7551 16 15.6667V8.99533C15.962 6.256 14.6733 5.242 13.598 4.874Z" fill="#FFFAFA"/>
</g>
<defs>
<clipPath id="clip0_231_303">
<rect width="16" height="16" fill="white"/>
</clipPath>
</defs>
</svg>
