<svg width="40" height="40" viewBox="0 0 40 40" fill="none" xmlns="http://www.w3.org/2000/svg">
<path d="M14.6667 29.3333H10.6667V16H14.6667V29.3333ZM29.3334 29.3333H25.3334V22.2107C25.3334 20.3547 24.6721 19.4307 23.3614 19.4307C22.3227 19.4307 21.6641 19.948 21.3334 20.984V29.3333H17.3334C17.3334 29.3333 17.3867 17.3333 17.3334 16H20.4907L20.7347 18.6667H20.8174C21.6374 17.3333 22.9481 16.4293 24.7454 16.4293C26.1121 16.4293 27.2174 16.8093 28.0614 17.764C28.9107 18.72 29.3334 20.0027 29.3334 21.804V29.3333Z" fill="#28303F"/>
<path d="M12.6668 14.6666C13.8082 14.6666 14.7334 13.7712 14.7334 12.6666C14.7334 11.5621 13.8082 10.6666 12.6668 10.6666C11.5254 10.6666 10.6001 11.5621 10.6001 12.6666C10.6001 13.7712 11.5254 14.6666 12.6668 14.6666Z" fill="#28303F"/>
</svg>
