<svg width="40" height="40" viewBox="0 0 40 40" fill="none" xmlns="http://www.w3.org/2000/svg">
<path d="M31.6133 13.3867C31.16 13.84 30.72 14.28 30.7067 14.72C30.6667 15.1467 31.12 15.5867 31.5467 16C32.1867 16.6667 32.8133 17.2667 32.7867 17.92C32.76 18.5733 32.08 19.2533 31.4 19.92L25.8933 25.44L24 23.5467L29.6667 17.8933L28.3867 16.6133L26.4933 18.4933L21.4933 13.4933L26.6133 8.38667C27.1333 7.86667 28 7.86667 28.4933 8.38667L31.6133 11.5067C32.1333 12 32.1333 12.8667 31.6133 13.3867ZM8 27L20.7467 14.24L25.7467 19.24L13 32H8V27Z" fill="black"/>
</svg>
