<svg width="40" height="40" viewBox="0 0 40 40" fill="none" xmlns="http://www.w3.org/2000/svg">
<path d="M32 29.3333V27.1388C32 26.0483 31.3361 25.0678 30.3237 24.6628L27.6115 23.5779C26.3238 23.0629 24.8563 23.6208 24.236 24.8613L24 25.3333C24 25.3333 20.6667 24.6667 18 22C15.3333 19.3333 14.6667 16 14.6667 16L15.1387 15.764C16.3792 15.1437 16.9371 13.6762 16.4221 12.3885L15.3372 9.67629C14.9322 8.66387 13.9517 8 12.8612 8H10.6667C9.19391 8 8 9.19391 8 10.6667C8 22.4487 17.5513 32 29.3333 32C30.8061 32 32 30.8061 32 29.3333Z" fill="#28303F"/>
</svg>
