<svg width="40" height="40" viewBox="0 0 40 40" fill="none" xmlns="http://www.w3.org/2000/svg">
<path d="M33.3125 18.2975L27.675 23.2175L29.3637 30.5425C29.4531 30.9254 29.4276 31.3262 29.2904 31.6947C29.1533 32.0632 28.9105 32.3831 28.5925 32.6144C28.2745 32.8457 27.8954 32.9782 27.5025 32.9951C27.1097 33.0121 26.7205 32.913 26.3837 32.71L19.995 28.835L13.62 32.71C13.2832 32.913 12.8941 33.0121 12.5012 32.9951C12.1084 32.9782 11.7292 32.8457 11.4112 32.6144C11.0932 32.3831 10.8505 32.0632 10.7133 31.6947C10.5761 31.3262 10.5506 30.9254 10.64 30.5425L12.3262 23.225L6.68749 18.2975C6.38925 18.0403 6.17359 17.7007 6.06756 17.3214C5.96153 16.9421 5.96984 16.54 6.09146 16.1654C6.21307 15.7908 6.44258 15.4604 6.75119 15.2158C7.0598 14.9711 7.43379 14.823 7.82624 14.79L15.2587 14.1462L18.16 7.22624C18.3115 6.86314 18.5671 6.55298 18.8945 6.33482C19.2219 6.11665 19.6065 6.00024 20 6.00024C20.3934 6.00024 20.7781 6.11665 21.1055 6.33482C21.4329 6.55298 21.6885 6.86314 21.84 7.22624L24.75 14.1462L32.18 14.79C32.5724 14.823 32.9464 14.9711 33.255 15.2158C33.5637 15.4604 33.7932 15.7908 33.9148 16.1654C34.0364 16.54 34.0447 16.9421 33.9387 17.3214C33.8326 17.7007 33.617 18.0403 33.3187 18.2975H33.3125Z" fill="black"/>
</svg>
