<svg width="28" height="28" viewBox="0 0 28 28" fill="none" xmlns="http://www.w3.org/2000/svg">
<path d="M22.8 13.1375V9.82417C21.2483 9.82417 20.0642 9.41 19.3 8.605C18.5157 7.68628 18.0763 6.52282 18.0575 5.315V5.07583L14.925 5V18.4575C14.8175 19.0447 14.5325 19.5847 14.1084 20.0048C13.6843 20.4248 13.1415 20.7046 12.5534 20.8064C11.9652 20.9082 11.36 20.8271 10.8194 20.574C10.2788 20.3209 9.82881 19.908 9.53028 19.3911C9.23176 18.8742 9.09901 18.2782 9.14996 17.6835C9.20092 17.0887 9.43313 16.524 9.81523 16.0654C10.1973 15.6068 10.711 15.2765 11.2867 15.1191C11.8625 14.9616 12.4727 14.9846 13.035 15.185V11.9767C12.7072 11.923 12.3755 11.8956 12.0433 11.895C10.8481 11.895 9.67966 12.2494 8.68584 12.9135C7.69202 13.5775 6.91743 14.5214 6.46002 15.6257C6.00262 16.7299 5.88294 17.945 6.11612 19.1173C6.34931 20.2896 6.92488 21.3664 7.77005 22.2116C8.61523 23.0568 9.69205 23.6324 10.8643 23.8655C12.0366 24.0987 13.2517 23.9791 14.356 23.5216C15.4603 23.0642 16.4041 22.2897 17.0682 21.2958C17.7322 20.302 18.0867 19.1336 18.0867 17.9383C18.086 17.6907 18.0704 17.4433 18.04 17.1975V11.86C19.4644 12.7496 21.1216 13.1943 22.8 13.1375Z" fill="white"/>
</svg>
