<svg width="40" height="40" viewBox="0 0 40 40" fill="none" xmlns="http://www.w3.org/2000/svg">
<path fill-rule="evenodd" clip-rule="evenodd" d="M17.3333 6.66663H22.6667C24.1394 6.66663 25.3333 7.86053 25.3333 9.33329C25.3333 10.8061 24.1394 12 22.6667 12H17.3333C15.8606 12 14.6667 10.8061 14.6667 9.33329C14.6667 7.86053 15.8606 6.66663 17.3333 6.66663ZM12.6764 9.37366C12.67 9.47058 12.6667 9.56837 12.6667 9.66694C12.6667 12.0602 14.6068 14.0003 17 14.0003H23C25.3932 14.0003 27.3333 12.0602 27.3333 9.66694C27.3333 9.56838 27.33 9.47058 27.3236 9.37366C29.9592 9.69738 32 11.9438 32 14.6669V28.0003C32 30.9458 29.6122 33.3336 26.6667 33.3336H13.3333C10.3878 33.3336 8 30.9458 8 28.0003V14.6669C8 11.9438 10.0408 9.69738 12.6764 9.37366ZM13.6667 17.3336C13.6667 16.7813 14.1144 16.3336 14.6667 16.3336H25.3333C25.8856 16.3336 26.3333 16.7813 26.3333 17.3336C26.3333 17.8859 25.8856 18.3336 25.3333 18.3336H14.6667C14.1144 18.3336 13.6667 17.8859 13.6667 17.3336ZM14.6667 21.667C14.1144 21.667 13.6667 22.1147 13.6667 22.667C13.6667 23.2192 14.1144 23.667 14.6667 23.667H25.3333C25.8856 23.667 26.3333 23.2192 26.3333 22.667C26.3333 22.1147 25.8856 21.667 25.3333 21.667H14.6667ZM13.6667 28.0003C13.6667 27.448 14.1144 27.0003 14.6667 27.0003H20C20.5523 27.0003 21 27.448 21 28.0003C21 28.5526 20.5523 29.0003 20 29.0003H14.6667C14.1144 29.0003 13.6667 28.5526 13.6667 28.0003Z" fill="#28303F"/>
</svg>
