<svg width="40" height="40" viewBox="0 0 40 40" fill="none" xmlns="http://www.w3.org/2000/svg">
<path d="M20 6.66667C12.636 6.66667 6.66666 12.636 6.66666 20C6.66666 27.364 12.636 33.3333 20 33.3333C27.364 33.3333 33.3333 27.364 33.3333 20C33.3333 12.636 27.364 6.66667 20 6.66667ZM29.224 14.6667H24.9373C24.738 13.1664 24.4868 11.6735 24.184 10.1907C26.3012 11.1026 28.0684 12.672 29.224 14.6667ZM21.352 9.42934C21.4427 9.89867 21.868 12.1467 22.212 14.6667H17.788C18.132 12.1467 18.5573 9.89867 18.648 9.42934C19.092 9.372 19.5413 9.33334 20 9.33334C20.4587 9.33334 20.908 9.372 21.352 9.42934ZM22.6667 20C22.6667 20.7973 22.6093 21.7147 22.5213 22.6667H17.4787C17.3907 21.7147 17.3333 20.7973 17.3333 20C17.3333 19.2027 17.3907 18.2853 17.4787 17.3333H22.5213C22.6093 18.2853 22.6667 19.2027 22.6667 20ZM15.816 10.1907C15.5132 11.6735 15.2619 13.1664 15.0627 14.6667H10.776C11.9316 12.672 13.6988 11.1026 15.816 10.1907ZM9.68399 17.3333H14.7787C14.7107 18.224 14.6667 19.1253 14.6667 20C14.6667 20.8747 14.7107 21.776 14.78 22.6667H9.68399C9.46266 21.812 9.33332 20.9227 9.33332 20C9.33332 19.0773 9.46399 18.188 9.68399 17.3333ZM10.776 25.3333H15.0627C15.3133 27.232 15.6227 28.8667 15.816 29.8093C13.6988 28.8974 11.9316 27.328 10.776 25.3333ZM18.648 30.5707C18.3164 28.8326 18.0296 27.0862 17.788 25.3333H22.212C21.9698 27.0861 21.683 28.8325 21.352 30.5707C20.908 30.628 20.4587 30.6667 20 30.6667C19.5413 30.6667 19.092 30.628 18.648 30.5707ZM24.184 29.8093C24.3773 28.8667 24.6867 27.232 24.9373 25.3333H29.224C28.0684 27.328 26.3012 28.8974 24.184 29.8093ZM30.316 22.6667H25.2213C25.2893 21.776 25.3333 20.8747 25.3333 20C25.3333 19.1253 25.2893 18.224 25.22 17.3333H30.3147C30.536 18.188 30.6667 19.0773 30.6667 20C30.6667 20.9227 30.5373 21.812 30.316 22.6667Z" fill="black"/>
</svg>
