<svg width="52" height="52" viewBox="0 0 52 52" fill="none" xmlns="http://www.w3.org/2000/svg">
<path d="M42.3494 38.9005C42.8074 39.3584 43.0646 39.9794 43.0646 40.627C43.0646 41.2746 42.8074 41.8957 42.3494 42.3536C41.8915 42.8115 41.2705 43.0688 40.6229 43.0688C39.9753 43.0688 39.3542 42.8115 38.8963 42.3536L25.9999 29.4531L13.0994 42.3495C12.6415 42.8074 12.0205 43.0647 11.3729 43.0647C10.7253 43.0647 10.1042 42.8074 9.64632 42.3495C9.18841 41.8916 8.93115 41.2705 8.93115 40.623C8.93115 39.9754 9.18841 39.3543 9.64632 38.8964L22.5468 26L9.65038 13.0995C9.19247 12.6416 8.93521 12.0205 8.93521 11.373C8.93521 10.7254 9.19247 10.1043 9.65038 9.6464C10.1083 9.18848 10.7294 8.93123 11.3769 8.93123C12.0245 8.93123 12.6456 9.18848 13.1035 9.6464L25.9999 22.5469L38.9004 9.64436C39.3583 9.18645 39.9794 8.9292 40.6269 8.9292C41.2745 8.9292 41.8956 9.18645 42.3535 9.64436C42.8114 10.1023 43.0687 10.7233 43.0687 11.3709C43.0687 12.0185 42.8114 12.6396 42.3535 13.0975L29.453 26L42.3494 38.9005Z" fill="black"/>
</svg>
