<svg width="17" height="17" viewBox="0 0 17 17" fill="none" xmlns="http://www.w3.org/2000/svg">
<path d="M13.845 12.7175C13.9947 12.8672 14.0788 13.0702 14.0788 13.2819C14.0788 13.4936 13.9947 13.6967 13.845 13.8464C13.6953 13.9961 13.4923 14.0802 13.2806 14.0802C13.0688 14.0802 12.8658 13.9961 12.7161 13.8464L8.49997 9.6289L4.28251 13.845C4.13281 13.9947 3.92977 14.0788 3.71806 14.0788C3.50635 14.0788 3.30331 13.9947 3.1536 13.845C3.0039 13.6953 2.9198 13.4923 2.9198 13.2806C2.9198 13.0689 3.0039 12.8658 3.1536 12.7161L7.37106 8.49999L3.15493 4.28253C3.00523 4.13283 2.92113 3.92979 2.92113 3.71808C2.92113 3.50637 3.00523 3.30333 3.15493 3.15363C3.30463 3.00392 3.50767 2.91982 3.71939 2.91982C3.9311 2.91982 4.13414 3.00392 4.28384 3.15363L8.49997 7.37109L12.7174 3.15296C12.8671 3.00326 13.0702 2.91916 13.2819 2.91916C13.4936 2.91916 13.6966 3.00326 13.8463 3.15296C13.996 3.30267 14.0801 3.50571 14.0801 3.71742C14.0801 3.92913 13.996 4.13217 13.8463 4.28187L9.62888 8.49999L13.845 12.7175Z" fill="#676565"/>
</svg>
