<svg width="40" height="40" viewBox="0 0 40 40" fill="none" xmlns="http://www.w3.org/2000/svg">
<path fill-rule="evenodd" clip-rule="evenodd" d="M19.9998 5.66663C17.2384 5.66663 14.9998 7.9052 14.9998 10.6666V12.0008C12.4733 12.0443 10.318 13.8584 9.85078 16.3504L7.85078 27.0171C7.23537 30.2993 9.75337 33.3333 13.0928 33.3333H26.9069C30.2463 33.3333 32.7643 30.2993 32.1489 27.0171L30.1489 16.3504C29.6816 13.8584 27.5264 12.0443 24.9998 12.0008V10.6666C24.9998 7.9052 22.7613 5.66663 19.9998 5.66663ZM22.9998 12V10.6666C22.9998 9.00977 21.6567 7.66663 19.9998 7.66663C18.343 7.66663 16.9998 9.00977 16.9998 10.6666V12H22.9998Z" fill="#28303F"/>
</svg>
