<svg width="40" height="40" viewBox="0 0 40 40" fill="none" xmlns="http://www.w3.org/2000/svg">
<path fill-rule="evenodd" clip-rule="evenodd" d="M19.0001 11.8374C16.1747 9.89633 12.2528 9.0124 9.32585 8.68165C7.86198 8.51624 6.66675 9.73866 6.66675 11.2469V26.2666C6.66675 27.7748 7.86198 28.9976 9.32585 29.1631C12.2528 29.4938 16.1747 30.3777 19.0001 32.3188V11.8374ZM21.0001 32.3188C23.8255 30.3777 27.7474 29.4938 30.6743 29.1631C32.1382 28.9976 33.3334 27.7748 33.3334 26.2666V11.2469C33.3334 9.73866 32.1382 8.51624 30.6743 8.68165C27.7474 9.0124 23.8255 9.89633 21.0001 11.8374V32.3188ZM9.67851 15.5199C9.76303 14.9741 10.274 14.6002 10.8198 14.6847C12.5568 14.9537 14.513 15.4034 16.3607 16.1179C16.8758 16.3171 17.1319 16.8962 16.9328 17.4113C16.7336 17.9264 16.1545 18.1825 15.6394 17.9833C13.9612 17.3343 12.1521 16.9149 10.5137 16.6612C9.9679 16.5766 9.59398 16.0657 9.67851 15.5199ZM10.8198 20.0181C10.274 19.9335 9.76303 20.3075 9.67851 20.8532C9.59398 21.399 9.9679 21.91 10.5137 21.9945C11.3393 22.1224 12.2109 22.2927 13.0888 22.5142C13.6243 22.6493 14.1679 22.3247 14.303 21.7892C14.4381 21.2537 14.1135 20.7101 13.578 20.575C12.6327 20.3365 11.6994 20.1543 10.8198 20.0181Z" fill="#28303F"/>
</svg>
