<svg width="40" height="40" viewBox="0 0 40 40" fill="none" xmlns="http://www.w3.org/2000/svg">
<path d="M31.5198 30.88H29.5998V13.6C29.6093 13.46 29.5716 13.3209 29.4927 13.2049C29.4138 13.0888 29.2983 13.0026 29.1646 12.96L24.4798 11.0016V30.88H23.1998V8.48C23.1998 8.31026 23.1324 8.14748 23.0124 8.02745C22.8924 7.90743 22.7296 7.84 22.5598 7.84H11.0398C10.8701 7.84 10.7073 7.90743 10.5873 8.02745C10.4673 8.14748 10.3998 8.31026 10.3998 8.48V30.88H8.47984C8.31011 30.88 8.14732 30.9474 8.0273 31.0675C7.90727 31.1875 7.83984 31.3503 7.83984 31.52C7.83984 31.6897 7.90727 31.8525 8.0273 31.9725C8.14732 32.0926 8.31011 32.16 8.47984 32.16H31.5198C31.6896 32.16 31.8524 32.0926 31.9724 31.9725C32.0924 31.8525 32.1598 31.6897 32.1598 31.52C32.1598 31.3503 32.0924 31.1875 31.9724 31.0675C31.8524 30.9474 31.6896 30.88 31.5198 30.88ZM26.3998 15.52H27.6798C27.8496 15.52 28.0124 15.5874 28.1324 15.7075C28.2524 15.8275 28.3198 15.9903 28.3198 16.16C28.3166 16.3287 28.2481 16.4896 28.1288 16.6089C28.0094 16.7282 27.8486 16.7967 27.6798 16.8H26.3998C26.2311 16.7967 26.0702 16.7282 25.9509 16.6089C25.8316 16.4896 25.7631 16.3287 25.7598 16.16C25.7598 15.9903 25.8273 15.8275 25.9473 15.7075C26.0673 15.5874 26.2301 15.52 26.3998 15.52ZM26.3998 19.36H27.6798C27.8496 19.36 28.0124 19.4274 28.1324 19.5475C28.2524 19.6675 28.3198 19.8303 28.3198 20C28.3198 20.1697 28.2524 20.3325 28.1324 20.4525C28.0124 20.5726 27.8496 20.64 27.6798 20.64H26.3998C26.2301 20.64 26.0673 20.5726 25.9473 20.4525C25.8273 20.3325 25.7598 20.1697 25.7598 20C25.7598 19.8303 25.8273 19.6675 25.9473 19.5475C26.0673 19.4274 26.2301 19.36 26.3998 19.36ZM26.3998 23.2H27.6798C27.8486 23.2033 28.0094 23.2718 28.1288 23.3911C28.2481 23.5104 28.3166 23.6713 28.3198 23.84C28.3198 24.0097 28.2524 24.1725 28.1324 24.2925C28.0124 24.4126 27.8496 24.48 27.6798 24.48H26.3998C26.2301 24.48 26.0673 24.4126 25.9473 24.2925C25.8273 24.1725 25.7598 24.0097 25.7598 23.84C25.7631 23.6713 25.8316 23.5104 25.9509 23.3911C26.0702 23.2718 26.2311 23.2033 26.3998 23.2ZM26.3998 27.04H27.6798C27.8496 27.04 28.0124 27.1074 28.1324 27.2275C28.2524 27.3475 28.3198 27.5103 28.3198 27.68C28.3198 27.8497 28.2524 28.0125 28.1324 28.1325C28.0124 28.2526 27.8496 28.32 27.6798 28.32H26.3998C26.2301 28.32 26.0673 28.2526 25.9473 28.1325C25.8273 28.0125 25.7598 27.8497 25.7598 27.68C25.7598 27.5103 25.8273 27.3475 25.9473 27.2275C26.0673 27.1074 26.2301 27.04 26.3998 27.04ZM18.0798 11.68H19.3598C19.5296 11.68 19.6924 11.7474 19.8124 11.8675C19.9324 11.9875 19.9998 12.1503 19.9998 12.32C19.9998 12.4897 19.9324 12.6525 19.8124 12.7725C19.6924 12.8926 19.5296 12.96 19.3598 12.96H18.0798C17.9101 12.96 17.7473 12.8926 17.6273 12.7725C17.5073 12.6525 17.4398 12.4897 17.4398 12.32C17.4398 12.1503 17.5073 11.9875 17.6273 11.8675C17.7473 11.7474 17.9101 11.68 18.0798 11.68ZM18.0798 15.52H19.3598C19.5296 15.52 19.6924 15.5874 19.8124 15.7075C19.9324 15.8275 19.9998 15.9903 19.9998 16.16C19.9998 16.3297 19.9324 16.4925 19.8124 16.6125C19.6924 16.7326 19.5296 16.8 19.3598 16.8H18.0798C17.9101 16.8 17.7473 16.7326 17.6273 16.6125C17.5073 16.4925 17.4398 16.3297 17.4398 16.16C17.4398 15.9903 17.5073 15.8275 17.6273 15.7075C17.7473 15.5874 17.9101 15.52 18.0798 15.52ZM18.0798 19.36H19.3598C19.5296 19.36 19.6924 19.4274 19.8124 19.5475C19.9324 19.6675 19.9998 19.8303 19.9998 20C19.9998 20.1697 19.9324 20.3325 19.8124 20.4525C19.6924 20.5726 19.5296 20.64 19.3598 20.64H18.0798C17.9101 20.64 17.7473 20.5726 17.6273 20.4525C17.5073 20.3325 17.4398 20.1697 17.4398 20C17.4398 19.8303 17.5073 19.6675 17.6273 19.5475C17.7473 19.4274 17.9101 19.36 18.0798 19.36ZM18.0798 23.2H19.3598C19.5296 23.2 19.6924 23.2674 19.8124 23.3875C19.9324 23.5075 19.9998 23.6703 19.9998 23.84C19.9998 24.0097 19.9324 24.1725 19.8124 24.2925C19.6924 24.4126 19.5296 24.48 19.3598 24.48H18.0798C17.9101 24.48 17.7473 24.4126 17.6273 24.2925C17.5073 24.1725 17.4398 24.0097 17.4398 23.84C17.4398 23.6703 17.5073 23.5075 17.6273 23.3875C17.7473 23.2674 17.9101 23.2 18.0798 23.2ZM14.163 11.68H15.5198C15.6896 11.68 15.8524 11.7474 15.9724 11.8675C16.0924 11.9875 16.1598 12.1503 16.1598 12.32C16.1598 12.4897 16.0924 12.6525 15.9724 12.7725C15.8524 12.8926 15.6896 12.96 15.5198 12.96H14.2398C14.0701 12.96 13.9073 12.8926 13.7873 12.7725C13.6673 12.6525 13.5998 12.4897 13.5998 12.32C13.5998 12.1503 13.6673 11.9875 13.7873 11.8675C13.9073 11.7474 14.0701 11.68 14.2398 11.68H14.163ZM14.163 15.52H15.5198C15.6896 15.52 15.8524 15.5874 15.9724 15.7075C16.0924 15.8275 16.1598 15.9903 16.1598 16.16C16.1598 16.3297 16.0924 16.4925 15.9724 16.6125C15.8524 16.7326 15.6896 16.8 15.5198 16.8H14.2398C14.0701 16.8 13.9073 16.7326 13.7873 16.6125C13.6673 16.4925 13.5998 16.3297 13.5998 16.16C13.5998 15.9903 13.6673 15.8275 13.7873 15.7075C13.9073 15.5874 14.0701 15.52 14.2398 15.52H14.163ZM14.163 19.36H15.5198C15.6896 19.36 15.8524 19.4274 15.9724 19.5475C16.0924 19.6675 16.1598 19.8303 16.1598 20C16.1598 20.1697 16.0924 20.3325 15.9724 20.4525C15.8524 20.5726 15.6896 20.64 15.5198 20.64H14.2398C14.0701 20.64 13.9073 20.5726 13.7873 20.4525C13.6673 20.3325 13.5998 20.1697 13.5998 20C13.5998 19.8303 13.6673 19.6675 13.7873 19.5475C13.9073 19.4274 14.0701 19.36 14.2398 19.36H14.163ZM14.163 23.2H15.5198C15.6896 23.2 15.8524 23.2674 15.9724 23.3875C16.0924 23.5075 16.1598 23.6703 16.1598 23.84C16.1598 24.0097 16.0924 24.1725 15.9724 24.2925C15.8524 24.4126 15.6896 24.48 15.5198 24.48H14.2398C14.0701 24.48 13.9073 24.4126 13.7873 24.2925C13.6673 24.1725 13.5998 24.0097 13.5998 23.84C13.5998 23.6703 13.6673 23.5075 13.7873 23.3875C13.9073 23.2674 14.0701 23.2 14.2398 23.2H14.163ZM17.4398 30.88V28.32H16.1598V30.88H14.8798V27.6416C14.8896 27.4786 14.9614 27.3255 15.0803 27.2137C15.1993 27.1018 15.3566 27.0397 15.5198 27.04H18.0798C18.2496 27.04 18.4124 27.1074 18.5324 27.2275C18.6524 27.3475 18.7198 27.5103 18.7198 27.68V30.88H17.4398Z" fill="#2B3344"/>
</svg>
