<svg width="40" height="40" viewBox="0 0 40 40" fill="none" xmlns="http://www.w3.org/2000/svg">
<g clip-path="url(#clip0_106_49)">
<path d="M39.424 20.3638C39.424 18.7705 39.2917 17.6079 39.0054 16.4022H20.3875V23.5934H31.3158C31.0955 25.3805 29.9057 28.0718 27.2617 29.8803L27.2247 30.121L33.1113 34.5774L33.5191 34.6172C37.2647 31.2368 39.424 26.2632 39.424 20.3638Z" fill="#4285F4"/>
<path d="M20.3875 39.3109C25.7415 39.3109 30.2362 37.5883 33.5192 34.6172L27.2618 29.8803C25.5873 31.0214 23.3399 31.8181 20.3875 31.8181C15.1437 31.8181 10.693 28.4378 9.10648 23.7657L8.87393 23.785L2.7529 28.4141L2.67285 28.6315C5.93371 34.9615 12.6318 39.3109 20.3875 39.3109Z" fill="#34A853"/>
<path d="M9.10636 23.7657C8.68775 22.56 8.44547 21.268 8.44547 19.9332C8.44547 18.5982 8.68775 17.3064 9.08434 16.1007L9.07325 15.8439L2.87552 11.1405L2.67274 11.2347C1.32878 13.8615 0.557617 16.8113 0.557617 19.9332C0.557617 23.0552 1.32878 26.0048 2.67274 28.6316L9.10636 23.7657Z" fill="#FBBC05"/>
<path d="M20.3875 8.04819C24.111 8.04819 26.6227 9.61993 28.055 10.9334L33.6513 5.59374C30.2143 2.47179 25.7415 0.55555 20.3875 0.55555C12.6318 0.55555 5.93371 4.90472 2.67285 11.2347L9.08445 16.1007C10.693 11.4286 15.1437 8.04819 20.3875 8.04819Z" fill="#EB4335"/>
</g>
<defs>
<clipPath id="clip0_106_49">
<rect width="38.8889" height="38.8889" fill="white" transform="translate(0.555664 0.55555)"/>
</clipPath>
</defs>
</svg>
