<svg width="39" height="39" viewBox="0 0 39 39" fill="none" xmlns="http://www.w3.org/2000/svg">
<path d="M27.4949 7.3125C24.487 7.3125 22.1357 9.57775 20.0069 12.4556C17.0819 8.73112 14.6363 7.3125 11.7097 7.3125C5.74267 7.3125 1.16992 15.08 1.16992 23.2993C1.16992 28.4424 3.6578 31.6875 7.82592 31.6875C10.8257 31.6875 12.9837 30.2738 16.8203 23.5674C16.8203 23.5674 18.4193 20.7448 19.5178 18.7996C19.9045 19.422 20.3092 20.0915 20.7365 20.8114L22.5354 23.8371C26.0389 29.7001 27.9922 31.6875 31.5282 31.6875C35.5907 31.6875 37.8494 28.3985 37.8494 23.1481C37.8494 14.5405 33.1743 7.3125 27.4949 7.3125ZM13.8937 21.7522C10.785 26.6272 9.7093 27.7209 7.97867 27.7209C6.19605 27.7209 5.13655 26.156 5.13655 23.3659C5.13655 17.3989 8.11192 11.297 11.6593 11.297C13.58 11.297 15.1855 12.4053 17.6442 15.925C15.309 19.5065 13.8937 21.7522 13.8937 21.7522ZM25.6327 21.1396L23.4812 17.55C22.9407 16.6673 22.3815 15.7961 21.8042 14.937C23.7428 11.9454 25.3402 10.4536 27.243 10.4536C31.1918 10.4536 34.3524 16.2711 34.3524 23.4146C34.3524 26.1381 33.4603 27.7193 31.6127 27.7193C29.8414 27.7193 28.9964 26.5509 25.6327 21.1396Z" fill="#0080FB"/>
</svg>
