<svg width="40" height="40" viewBox="0 0 40 40" fill="none" xmlns="http://www.w3.org/2000/svg">
<path fill-rule="evenodd" clip-rule="evenodd" d="M8.62631 10.0405C8.23578 9.64993 8.23578 9.01676 8.62631 8.62624C9.01683 8.23571 9.65 8.23571 10.0405 8.62624L31.3739 29.9596C31.7644 30.3501 31.7644 30.9833 31.3739 31.3738C30.9833 31.7643 30.3502 31.7643 29.9596 31.3738L26.1906 27.6048C24.3116 28.6278 22.2135 29.3333 20.0001 29.3333C14.9127 29.3333 10.4341 25.6062 7.82636 22.8625C6.28021 21.2358 6.28021 18.7642 7.82636 17.1375C8.93278 15.9734 10.376 14.6322 12.0597 13.4738L8.62631 10.0405ZM16.5539 17.968C16.202 18.5636 16.0001 19.2582 16.0001 20C16.0001 22.2091 17.7909 24 20.0001 24C20.7419 24 21.4365 23.7981 22.032 23.4462L16.5539 17.968ZM20.0001 10.6667C25.0874 10.6667 29.5661 14.3938 32.1738 17.1375C33.7199 18.7642 33.7199 21.2358 32.1738 22.8625C31.5871 23.4799 30.9056 24.147 30.1438 24.8103L16.5503 11.2169C17.6563 10.8701 18.8116 10.6667 20.0001 10.6667Z" fill="#28303F"/>
</svg>
