<svg width="40" height="40" viewBox="0 0 40 40" fill="none" xmlns="http://www.w3.org/2000/svg">
<path fill-rule="evenodd" clip-rule="evenodd" d="M13.3334 12H26.6667C28.1395 12 29.3334 10.8061 29.3334 9.33329C29.3334 7.86053 28.1395 6.66663 26.6667 6.66663H13.3334C11.8607 6.66663 10.6667 7.86053 10.6667 9.33329C10.6667 10.8061 11.8607 12 13.3334 12ZM21.2692 32.7013L28.3302 24.1291C29.3906 22.6414 29.6253 20.7772 28.9628 19.1042L27.3208 14H12.6793L11.0373 19.1042C10.3748 20.7772 10.6095 22.6414 11.6699 24.1291L18.7309 32.7013C18.8092 32.8112 18.9 32.9067 19.0001 32.9879V22.4728C18.0228 22.0772 17.3334 21.1191 17.3334 20C17.3334 18.5272 18.5273 17.3333 20.0001 17.3333C21.4728 17.3333 22.6667 18.5272 22.6667 20C22.6667 21.1191 21.9774 22.0772 21.0001 22.4728V32.9879C21.1001 32.9067 21.1909 32.8112 21.2692 32.7013Z" fill="#28303F"/>
</svg>
