<svg width="40" height="40" viewBox="0 0 40 40" fill="none" xmlns="http://www.w3.org/2000/svg">
<path fill-rule="evenodd" clip-rule="evenodd" d="M13.0001 9.33329C13.0001 8.41282 13.7463 7.66663 14.6667 7.66663H30.6667C31.5872 7.66663 32.3334 8.41282 32.3334 9.33329V17.3333C32.3334 18.2538 31.5872 19 30.6667 19H29.3334C28.7811 19 28.3334 19.4477 28.3334 20C28.3334 20.5522 28.7811 21 29.3334 21H30.6667C32.6918 21 34.3334 19.3583 34.3334 17.3333V9.33329C34.3334 7.30825 32.6918 5.66663 30.6667 5.66663H14.6667C12.6417 5.66663 11.0001 7.30825 11.0001 9.33329V11.3333C11.0001 11.8856 11.4478 12.3333 12.0001 12.3333C12.5524 12.3333 13.0001 11.8856 13.0001 11.3333V9.33329ZM13.3334 17.3333C13.3334 18.8061 12.1395 20 10.6667 20C9.19399 20 8.00008 18.8061 8.00008 17.3333C8.00008 15.8605 9.19399 14.6666 10.6667 14.6666C12.1395 14.6666 13.3334 15.8605 13.3334 17.3333ZM27.5079 16.5408C27.8066 16.0763 27.6721 15.4576 27.2075 15.1589C26.743 14.8603 26.1242 14.9948 25.8256 15.4593L20.638 23.5289C20.1059 23.353 19.5016 23.4081 18.9905 23.7333L14.6667 26V25.3333C14.6667 23.1242 12.8759 21.3333 10.6667 21.3333C8.45761 21.3333 6.66675 23.1242 6.66675 25.3333V33.3333H14.6667V30.2399C15.0179 30.1876 15.3647 30.0638 15.6858 29.8631L21.0552 27.0072C21.6984 26.6052 22.0249 25.886 21.956 25.1772L27.5079 16.5408ZM16.3334 12C16.3334 11.4477 16.7811 11 17.3334 11H28.0001C28.5524 11 29.0001 11.4477 29.0001 12C29.0001 12.5522 28.5524 13 28.0001 13H17.3334C16.7811 13 16.3334 12.5522 16.3334 12ZM17.3334 15C16.7811 15 16.3334 15.4477 16.3334 16C16.3334 16.5522 16.7811 17 17.3334 17H22.6667C23.219 17 23.6667 16.5522 23.6667 16C23.6667 15.4477 23.219 15 22.6667 15H17.3334Z" fill="#28303F"/>
</svg>
