<svg width="40" height="40" viewBox="0 0 40 40" fill="none" xmlns="http://www.w3.org/2000/svg">
<path d="M19.9999 18.2044C22.3367 18.2044 24.231 16.334 24.231 14.0267C24.231 11.7193 22.3367 9.84888 19.9999 9.84888C17.6631 9.84888 15.7688 11.7193 15.7688 14.0267C15.7688 16.334 17.6631 18.2044 19.9999 18.2044Z" fill="black"/>
<path d="M13.5822 14.4444H14.0088V14.0622C14.0114 12.9507 14.325 11.8622 14.9141 10.9197C15.5032 9.97713 16.3442 9.21826 17.3422 8.72888C17.0467 8.04849 16.5725 7.46082 15.9699 7.02829C15.3673 6.59576 14.6588 6.33452 13.9197 6.27231C13.1805 6.2101 12.4383 6.34926 11.7719 6.67499C11.1055 7.00072 10.5398 7.50087 10.1348 8.12231C9.72976 8.74375 9.50064 9.46328 9.47174 10.2045C9.44283 10.9457 9.61522 11.6809 9.97059 12.332C10.326 12.9831 10.851 13.5257 11.4901 13.9024C12.1291 14.279 12.8582 14.4756 13.6 14.4711L13.5822 14.4444ZM26.0088 14.0267V14.4089H26.4355C27.1674 14.4015 27.8837 14.197 28.5092 13.8169C29.1346 13.4367 29.646 12.895 29.9895 12.2487C30.333 11.6024 30.496 10.8755 30.4612 10.1444C30.4264 9.41332 30.1951 8.70514 29.7918 8.0944C29.3884 7.48367 28.8279 6.99297 28.1691 6.67395C27.5104 6.35493 26.7779 6.21939 26.0486 6.2816C25.3194 6.34381 24.6204 6.60146 24.0252 7.02745C23.43 7.45343 22.9607 8.03199 22.6666 8.70221C23.6649 9.18968 24.5069 9.94663 25.0975 10.8875C25.6881 11.8284 26.0038 12.9158 26.0088 14.0267ZM23.8133 18.6222C25.5806 18.972 27.2895 19.5706 28.8888 20.4C29.1142 20.5238 29.3182 20.6828 29.4933 20.8711H34.2222V17.8311C34.223 17.7145 34.192 17.5999 34.1325 17.4996C34.073 17.3994 33.9872 17.3173 33.8844 17.2622C31.5805 16.0572 29.0177 15.4317 26.4177 15.44H25.8311C25.523 16.6922 24.8145 17.8095 23.8133 18.6222ZM9.80439 22.5955C9.80277 22.1479 9.92367 21.7083 10.154 21.3244C10.3843 20.9405 10.7153 20.627 11.1111 20.4178C12.7104 19.5884 14.4193 18.9898 16.1866 18.64C15.1902 17.8342 14.4822 16.7269 14.1688 15.4844H13.5822C10.9822 15.4762 8.41937 16.1016 6.11551 17.3067C6.01272 17.3617 5.92693 17.4438 5.8674 17.5441C5.80787 17.6443 5.77687 17.7589 5.77773 17.8755V23.5555H9.80439V22.5955ZM23.0755 27.7244H28.3733V28.9689H23.0755V27.7244Z" fill="black"/>
<path d="M33.1644 22.8978H27.0577V22.0089C27.0577 21.7731 26.9641 21.547 26.7974 21.3803C26.6307 21.2136 26.4046 21.12 26.1688 21.12C25.9331 21.12 25.707 21.2136 25.5403 21.3803C25.3736 21.547 25.2799 21.7731 25.2799 22.0089V22.8978H23.5555V20.3822C22.386 20.1366 21.1949 20.0086 19.9999 20C17.1944 19.9883 14.4289 20.6659 11.9466 21.9733C11.836 22.0307 11.7435 22.1175 11.6792 22.2242C11.6149 22.3308 11.5813 22.4532 11.5822 22.5778V27.5644H17.9022V32.9778C17.9022 33.2135 17.9958 33.4396 18.1625 33.6063C18.3292 33.773 18.5553 33.8667 18.7911 33.8667H33.1644C33.4001 33.8667 33.6262 33.773 33.7929 33.6063C33.9596 33.4396 34.0533 33.2135 34.0533 32.9778V23.7867C34.0533 23.5509 33.9596 23.3248 33.7929 23.1581C33.6262 22.9914 33.4001 22.8978 33.1644 22.8978ZM32.2755 32.1067H19.6799V24.6756H25.2799V25.4844C25.2799 25.7202 25.3736 25.9463 25.5403 26.113C25.707 26.2797 25.9331 26.3733 26.1688 26.3733C26.4046 26.3733 26.6307 26.2797 26.7974 26.113C26.9641 25.9463 27.0577 25.7202 27.0577 25.4844V24.6756H32.2755V32.1067Z" fill="black"/>
</svg>
